<svg width="332" height="206" viewBox="0 0 332 206" fill="none" xmlns="http://www.w3.org/2000/svg">
<path d="M215.562 205.765C213.629 205.92 211.676 205.999 209.705 206H72.1812C62.7149 206.035 53.3348 204.201 44.579 200.603C35.8232 197.005 27.8639 191.714 21.1577 185.032C14.4516 178.351 9.13049 170.412 5.49974 161.669C1.86898 152.927 0 143.554 0 134.087C0 124.621 1.86898 115.248 5.49974 106.506C9.13049 97.7633 14.4516 89.8238 21.1577 83.1426C27.8639 76.4614 35.8232 71.17 44.579 67.5718C53.3348 63.9737 62.7149 62.1397 72.1812 62.175H123.457C140.081 25.6 178.368 0 222.941 0C282.768 0 331.268 46.115 331.268 103C331.268 159.885 282.768 206 222.941 206C220.461 206 218.001 205.922 215.562 205.765Z" fill="url(#paint0_linear_4_4)"/>
<defs>
<linearGradient id="paint0_linear_4_4" x1="134.164" y1="25.9561" x2="200.206" y2="217.168" gradientUnits="userSpaceOnUse">
<stop stop-color="white" stop-opacity="0.596"/>
<stop offset="1" stop-color="#F7F7F7" stop-opacity="0.204"/>
</linearGradient>
</defs>
</svg>
